<svg width="12" height="18" viewBox="0 0 12 18" fill="none" xmlns="http://www.w3.org/2000/svg">
<path d="M1.00002 15.6666H11C11.4584 15.6666 11.8334 16.0416 11.8334 16.5C11.8334 16.9583 11.4584 17.3333 11 17.3333H1.00002C0.541687 17.3333 0.166687 16.9583 0.166687 16.5C0.166687 16.0416 0.541687 15.6666 1.00002 15.6666ZM6.00002 4.83329C5.08335 4.83329 4.33335 5.58329 4.33335 6.49996C4.33335 7.41663 5.08335 8.16663 6.00002 8.16663C6.91669 8.16663 7.66669 7.41663 7.66669 6.49996C7.66669 5.58329 6.91669 4.83329 6.00002 4.83329ZM6.00002 0.666626C8.72502 0.666626 11.8334 2.71663 11.8334 6.62496C11.8334 9.10829 10.0584 11.725 6.50835 14.45C6.20835 14.6833 5.79169 14.6833 5.49169 14.45C1.94169 11.7166 0.166687 9.10829 0.166687 6.62496C0.166687 2.71663 3.27502 0.666626 6.00002 0.666626Z" fill="#333333" fill-opacity="0.7"/>
</svg>
